<?xml version="1.0" standalone="no"?>
<!DOCTYPE svg PUBLIC "-//W3C//DTD SVG 20010904//EN"
 "http://www.w3.org/TR/2001/REC-SVG-20010904/DTD/svg10.dtd">
<svg version="1.0" xmlns="http://www.w3.org/2000/svg"
 width="474.000000pt" height="134.000000pt" viewBox="0 0 474.000000 134.000000"
 preserveAspectRatio="xMidYMid meet">
<metadata>
Created by potrace 1.16, written by Peter Selinger 2001-2019
</metadata>
<g transform="translate(0.000000,134.000000) scale(0.100000,-0.100000)"
fill="#000000" stroke="none">
<path d="M612 1140 c3 -52 1 -55 -49 -53 -7 1 -13 -3 -13 -8 0 -5 21 -6 48 -3
36 4 44 3 32 -6 -12 -9 -10 -10 10 -5 22 6 23 6 10 -8 -18 -19 -94 -24 -130
-9 l-25 11 25 0 c17 1 21 4 13 12 -7 7 -24 3 -57 -12 -25 -13 -46 -27 -46 -31
0 -4 -8 -8 -19 -8 -10 0 -24 -7 -31 -15 -10 -12 -9 -20 4 -40 9 -14 21 -25 27
-25 6 0 8 -4 5 -9 -8 -12 29 -43 39 -34 4 5 6 1 2 -9 -3 -9 2 -23 14 -34 18
-17 20 -16 43 5 15 14 42 24 75 28 34 4 48 9 39 14 -8 4 -32 3 -54 -3 -21 -5
-51 -11 -65 -12 -14 -2 -31 -6 -38 -11 -10 -6 -11 -3 -2 14 7 11 18 21 26 21
8 0 15 5 15 10 0 16 -27 11 -34 -6 -5 -12 -10 -14 -20 -5 -7 6 -15 10 -17 8
-2 -1 -1 2 2 6 6 8 29 14 59 17 12 0 11 3 -2 11 -10 5 -18 17 -18 24 0 26 -18
16 -29 -17 l-11 -32 -32 33 c-24 25 -29 34 -19 44 10 9 11 8 6 -5 -11 -27 3
-21 41 17 37 39 47 41 84 20 l25 -15 -30 7 c-27 6 -29 5 -16 -11 17 -20 88
-19 84 2 -2 7 8 12 27 12 23 0 30 -4 30 -20 0 -11 7 -20 15 -20 21 0 19 26 -2
35 -18 8 -14 9 71 30 10 2 21 7 25 11 3 4 -2 4 -11 1 -10 -4 -18 -2 -18 3 0 6
-16 10 -35 10 -25 0 -35 4 -35 16 0 11 6 14 23 8 22 -6 22 -6 -2 15 -28 25
-35 26 -28 6 4 -8 2 -17 -3 -20 -6 -4 -10 -2 -10 4 0 5 -3 17 -7 27 -5 14 -2
16 21 10 20 -5 26 -4 20 5 -4 7 -2 10 7 7 8 -3 13 -11 12 -17 -2 -6 4 -11 13
-11 8 0 12 -5 9 -10 -4 -6 -1 -9 7 -8 7 2 12 -3 10 -11 -2 -9 3 -11 13 -7 9 3
25 -3 37 -13 11 -11 27 -17 37 -13 14 5 14 4 2 -12 -8 -10 -23 -15 -33 -13
-10 3 -18 1 -18 -4 0 -5 6 -9 14 -9 7 0 19 -7 26 -15 7 -8 18 -15 24 -15 7 0
6 4 -2 9 -21 13 15 23 37 11 10 -5 22 -6 26 -2 5 4 5 2 1 -5 -4 -7 -14 -9 -23
-6 -12 5 -15 2 -10 -10 6 -16 -5 -23 -28 -17 -5 2 -18 2 -27 2 -10 0 -18 3
-18 9 0 5 -15 9 -33 9 -27 0 -37 -7 -60 -42 -39 -61 -35 -107 10 -103 12 1 20
-2 17 -7 -4 -5 -12 -7 -20 -4 -9 3 -11 -1 -8 -12 3 -9 -8 -2 -25 16 l-31 32 0
-37 c0 -47 11 -65 30 -53 12 7 12 12 -3 28 -9 10 -17 23 -17 28 0 4 7 -2 16
-14 9 -13 20 -22 24 -20 5 2 46 37 92 79 45 42 94 86 108 97 20 17 22 22 11
35 -7 9 -20 13 -28 10 -10 -4 -14 -2 -10 5 4 6 -6 20 -23 32 -16 12 -30 18
-30 14 0 -4 -9 2 -20 14 -19 20 -32 26 -46 20 -3 -2 -10 5 -15 15 -10 17 -79
57 -100 57 -7 0 -10 -17 -7 -50z m232 -89 c3 -4 -6 -13 -19 -19 -27 -12 -33
-4 -13 16 14 14 25 15 32 3z m-30 -92 c10 8 16 9 16 3 0 -6 -9 -14 -20 -17
-11 -4 -18 -11 -15 -16 4 -5 -2 -6 -12 -2 -10 3 -15 3 -11 -1 3 -4 -3 -19 -15
-32 -18 -21 -23 -22 -35 -10 -11 10 -11 18 -3 34 14 26 63 52 73 38 4 -6 12
-5 22 3z"/>
<path d="M1200 950 l0 -60 520 0 520 0 6 24 c3 13 4 38 2 57 l-3 34 -522 3
-523 2 0 -60z"/>
<path d="M2503 991 c-99 -34 -168 -97 -210 -191 -26 -56 -23 -203 4 -262 30
-66 96 -133 162 -165 l56 -28 328 -3 327 -3 0 54 c0 41 -4 56 -16 61 -9 3
-135 6 -281 6 -303 0 -328 4 -389 65 -105 105 -67 290 71 350 11 5 74 11 140
14 l120 6 3 58 3 57 -133 0 c-101 -1 -145 -5 -185 -19z"/>
<path d="M2985 996 c-17 -7 -44 -29 -62 -49 -82 -94 -66 -228 35 -298 31 -21
49 -24 169 -29 132 -5 135 -5 159 -33 45 -53 20 -114 -52 -126 l-39 -6 -3 -59
-3 -58 69 4 c83 4 141 37 171 96 46 91 35 172 -33 237 -55 53 -99 65 -239 65
-95 0 -118 3 -136 18 -31 25 -37 72 -13 102 20 25 23 25 219 30 l198 5 3 58 3
57 -208 0 c-149 -1 -217 -5 -238 -14z"/>
<path d="M3472 778 c3 -231 3 -233 30 -284 33 -63 95 -118 156 -138 54 -19
160 -21 197 -4 21 9 25 18 26 57 0 25 2 53 4 62 6 34 -11 43 -48 26 -77 -37
-167 -12 -204 55 -15 28 -19 66 -23 243 l-5 210 -68 3 -69 3 4 -233z"/>
<path d="M3917 1003 c-10 -9 -8 -623 1 -623 16 0 84 74 105 115 20 37 22 57
25 278 l3 237 -64 0 c-35 0 -67 -3 -70 -7z"/>
<path d="M4084 996 c-3 -7 -4 -33 -2 -57 l3 -44 112 -5 c137 -6 153 -16 153
-95 0 -86 -13 -94 -150 -97 l-115 -3 0 -60 0 -60 105 -3 c120 -3 173 8 230 49
52 38 81 95 81 164 2 96 -50 170 -144 210 -50 21 -265 22 -273 1z"/>
<path d="M592 965 c-34 -15 -43 -35 -14 -35 9 0 28 -3 42 -6 20 -4 22 -3 10 5
-10 7 -11 11 -2 11 13 0 17 26 4 34 -4 2 -22 -2 -40 -9z"/>
<path d="M568 913 c7 -3 16 -2 19 1 4 3 -2 6 -13 5 -11 0 -14 -3 -6 -6z"/>
<path d="M1418 872 c-16 -3 -18 -28 -20 -255 -2 -139 -1 -258 1 -265 2 -9 22
-12 70 -10 l66 3 0 260 0 260 -50 5 c-28 3 -58 4 -67 2z"/>
<path d="M1798 872 c-44 -3 -48 -5 -68 -47 -46 -96 -43 -224 8 -318 32 -60 79
-102 152 -136 52 -24 64 -26 205 -26 l150 0 3 43 c5 68 -2 72 -147 72 -108 0
-131 3 -159 20 -37 23 -72 75 -72 107 0 22 1 23 188 25 l187 3 0 55 0 55 -185
5 c-184 5 -185 5 -188 28 -2 13 8 41 22 63 14 21 26 40 26 43 0 6 -71 11 -122
8z"/>
</g>
</svg>
